<svg 
          width="104" 
          height="30" fill="none"
          xmlns="http://www.w3.org/2000/svg">
          <path d="M 5.3490600723683865 0.10338592428904689 C 3.223746424299056 1.010864353716801 0.8813579989729059 3.568303566716191 0.14431334834595058 6.780570989033381 C -0.7896130801512518 10.848755492340636 3.1025884580695386 12.570902821409412 3.425676508434547 12.00888491020121 C 3.7941988337480246 11.343744486515119 2.7239696706751744 11.116874110835315 2.5018466322879913 9.008017897800455 C 2.214096334610726 6.28042648696659 3.466062116038731 3.233155232132015 5.036068092915303 1.8977182622092281 C 5.328866636677972 1.65022414928342 5.313721988691523 1.9956847136023457 5.313721988691523 2.635044524535422 C 5.313721988691523 3.7797048371542354 5.2531430356666835 14.04555442407436 5.2531430356666835 16.18534737241284 C 5.2531430356666835 19.083090950348264 5.13703345092721 20.000882485398833 4.925006919755793 20.903204792275986 C 4.707932127454013 21.820995466804945 4.364651002477631 22.439730065312116 4.62716003963796 22.67691193313672 C 4.919958583400629 22.945030551631397 6.166876720541635 22.310826494453945 6.8837283266471365 21.284757123430662 C 7.746979249768853 20.05759872707054 8.049874323314729 18.582946202418157 8.105405082911524 16.984546736551295 C 8.171032342201606 15.050998936100257 8.165984633033217 11.9934165425494 8.17103288382017 10.245489276851734 C 8.17103288382017 8.64193368843427 8.196273561344903 3.9550130038747406 8.14579105159475 1.1346113871300192 C 8.125598048446937 0.44884641177568585 6.242600472002523 -0.2730113906999545 5.3490600723683865 0.10338592428904689 Z M 103.5223973811511 15.329430291422774 C 103.21445406904229 15.329430291422774 103.07309781512275 15.654266503837402 102.95698804232127 16.19565986337736 C 102.55312796432005 18.087958683423576 102.12907706845147 18.515917223918606 101.57881770352395 18.515917223918606 C 100.96797932539175 18.515917223918606 100.4177190728116 17.577502550913866 100.27636804701567 15.700672098519464 C 100.16530652782207 14.226019696798735 100.18044943059316 11.508739916407784 100.32180045638908 8.806929241258592 C 100.3520899611108 8.250067452600994 100.20064279105877 7.703518154907921 98.73664998197566 7.162124795367962 C 98.10561861950185 6.93009906546042 97.18683632746247 6.584638209178806 96.7324937585173 7.708674031595207 C 95.44518980314267 10.869380228406367 94.94036807571219 13.380414492114902 94.81921005682531 14.401327740587583 C 94.81416180603836 14.4528890160346 94.74853269527789 14.463200957648274 94.73843619370398 14.344610023735973 C 94.66271242719813 13.5247857391343 94.49612076713171 12.039820907914878 94.47087951225664 8.920363691508543 C 94.46583126146969 8.311940677344914 94.33962896554594 7.79117214606943 93.67830812655971 7.368369697392086 C 93.24920678804156 7.095094956346805 91.94675776342159 6.605262637915389 91.47727042613029 7.187905039326002 C 91.07341034812907 7.662268774975206 90.59887139468131 8.935832550886985 90.10919104295847 10.446577933393595 C 89.71037921104265 11.673736329753716 89.43777274892399 12.503872675059108 89.43777274892399 12.503872675059108 C 89.43777274892399 12.503872675059108 89.4428231567821 9.188482924661514 89.44787140756905 7.935543915548377 C 89.44787140756905 7.461180179899173 89.12982790222927 7.306496009733639 89.03391113633684 7.275559245617913 C 88.59976155173328 7.146656058921177 87.74155953667521 6.935254911414791 87.37808545744714 6.935254911414791 C 86.92879113458737 6.935254911414791 86.82278248028193 7.18790516225766 86.82278248028193 7.5591463546960584 C 86.82278248028193 7.605551503750858 86.75210727580564 11.921229966319348 86.75210727580564 14.937564485850304 L 86.75210727580564 15.365523026345336 C 86.50474297690153 16.752521344705812 85.70206462774158 18.63450791965082 84.82871721244905 18.63450791965082 C 83.95032155107113 18.63450791965082 83.54141939541813 17.850776554369197 83.54141939541813 14.2517995719618 C 83.54141939541813 12.153255604028146 83.60199470944325 11.24062178963974 83.63228421416497 9.724720284582528 C 83.64742896652582 8.853334713008996 83.6827698043707 8.17788156786152 83.6827698043707 8.028353875595915 C 83.67772155358374 7.559146262497314 82.8800942234834 7.327120678571117 82.51157189816992 7.239466510695349 C 82.13800132677103 7.151812342819581 81.81491851205215 7.115719432143163 81.56250596706262 7.131187814201026 C 81.20408016400987 7.1518123236115105 80.95166421885936 7.388994371991986 80.95166421885936 7.71898652255973 C 80.95166421885936 7.894294858311265 80.95166421885936 8.229443023864413 80.95166421885936 8.229443023864413 C 80.49227337373887 7.497272945554651 79.75522568402998 6.986816398150597 79.26049708622175 6.837288705884991 C 77.93785540824929 6.440266900693578 76.55463826768273 6.790882988271272 75.50965036512682 8.275847758024865 C 74.68173722478276 9.451444805947297 74.18195821441488 10.786881898801742 73.98507643654463 12.70496133160097 C 73.8386771646633 14.107428017613255 73.88915843696547 15.530519931417903 74.141570981955 16.73189759209335 C 73.8336276698462 18.087959175150207 73.25813200923858 18.644820410615342 72.63214889285018 18.644820410615342 C 71.72346375495984 18.644820410615342 71.06213947067775 17.134075151040392 71.1378632371836 14.519918436319795 C 71.18834574693375 12.802928028857405 71.52657854683868 11.59639449149467 71.89510087215216 9.848467225797002 C 72.05159665124926 9.105984840920206 71.92538944596697 8.714119158279395 71.60230139560197 8.342877965840996 C 71.3095028518393 8.002573539439132 70.67847392664902 7.8272651422217665 69.77483703484408 8.038666366560438 C 69.13370918019947 8.193350196743104 68.20988201214573 8.358346587039353 67.37187237963087 8.482093643502257 C 67.37187237963087 8.482093643502257 67.42235119208209 8.275848341950242 67.46273719837771 7.914919425345965 C 67.6798119906795 6.012308360198546 65.64536716331638 6.166992221114126 64.99414281650095 6.775415235277754 C 64.60542750684586 7.141500274432635 64.34291953035523 7.569458722728923 64.24195451085492 8.337721720358735 C 64.08545873175783 9.559723871236594 65.06481802097724 10.137210088630775 65.06481802097724 10.137210088630775 C 64.74172997061224 11.632487103485575 63.95420406272805 13.586659517070684 63.141435660640205 14.999438448184176 C 62.707286076036645 15.757389200712781 62.36905082004198 16.319406620194346 61.93994948152382 16.912361266706167 C 61.93994948152382 16.69064778189983 61.939952254498024 16.468934819553045 61.93490400371107 16.24722133474671 C 61.92480750213716 13.101983628519017 61.96519273925921 10.627041853869729 61.98538574240702 9.735031792093784 C 62.00053049476788 8.863646220520252 62.03586748110297 8.208818441463256 62.03586748110297 8.05413461128059 C 62.03081923031601 7.713830184878725 61.833937908496125 7.584927244045305 61.4250295844095 7.419931168761433 C 61.061555505181424 7.275559599046431 60.637501209151864 7.1775931975943 60.193255132377494 7.1415003051655495 C 59.63794752136457 7.09509515611075 59.29971472334026 7.399306463428619 59.309811224914164 7.7550792574822935 C 59.309811224914164 7.822108912105963 59.309811224914164 8.234599269346674 59.309811224914164 8.234599269346674 C 58.85042037979367 7.502429191036913 58.11337654159456 6.991972643632859 57.61864794378632 6.842444951367253 C 56.296006265813865 6.445423146175839 54.91278527373754 6.796039233753533 53.867797371181624 8.281004003507126 C 53.03988423083757 9.456601051429558 52.499723073206304 11.111718725874661 52.343227294109205 12.694649824089714 C 52.20187626831327 14.169302225810442 52.22711552785052 15.422240374401973 52.42399730572077 16.479246480728875 C 52.21197077454935 17.536252587055777 51.606180055749114 18.644820410615342 50.92466617224144 18.644820410615342 C 50.051318756948916 18.644820410615342 49.55154516276665 17.86108904533372 49.55154516276665 14.262112062926324 C 49.55154516276665 12.16356809499267 49.612120476791766 11.250933297150995 49.64240998151349 9.735031792093784 C 49.6626029846613 8.863646220520252 49.69289557171922 8.188194058826044 49.69289557171922 8.038666366560438 C 49.68784732093226 7.569458753461837 48.890223842341705 7.3374331695356405 48.52170151702823 7.249779001659872 C 48.132986207373136 7.156968703550273 47.79980040106067 7.126031549510693 47.542339609985746 7.146656058921177 C 47.204106791274604 7.172436696644686 46.966839315530414 7.481804424238268 46.966839315530414 7.708674031595207 L 46.966839315530414 8.239755023102301 C 46.50744847040992 7.50758494479254 45.76535638612541 6.997128397388487 45.27567603440257 6.847600705122881 C 43.953034356430116 6.450578899931467 42.579907088251936 6.811507847268659 41.52987093961062 8.286160248989388 C 40.84330881001753 9.250356087939606 40.28800291413007 10.31767474669686 40.005300862538206 12.67918108764293 C 39.91948059633907 13.35978994044666 39.88414114639176 13.999149382584761 39.88918939717872 14.597260151647184 C 39.61658383775766 16.298782191457764 38.410053294155574 18.252955588496143 37.4256443446245 18.252955588496143 C 36.85014374926997 18.252955588496143 36.29988655081671 17.113450414974665 36.29988655081671 14.690070603421356 C 36.29988655081671 11.457178690901753 36.496767873576914 6.857912888758257 36.532105630025896 6.414485919145586 C 36.532105630025896 6.414485919145586 37.77902206708641 6.393861802540168 38.02133810486016 6.388705675187547 C 38.642272975163166 6.383549547834925 39.20767599510977 6.399017597593149 40.03558913545382 6.352612448538349 C 40.449545705625845 6.331987939127865 40.848359673926 4.816086391812896 40.42430661158316 4.630465795593697 C 40.22742483371292 4.542811627717929 38.854299370929944 4.4706258831973775 38.30908825208783 4.460313628492136 C 37.87493866748427 4.434532990768627 36.597731505179645 4.336566687277662 36.597731505179645 4.336566687277662 C 36.597731505179645 4.336566687277662 36.71384065925714 1.2841391254949968 36.739081914132214 0.9593030974778555 C 36.759274917280024 0.6911844789831776 36.415995548802734 0.5519690318187782 36.22416201701789 0.4694709941768421 C 35.74457818755578 0.26322589238877325 35.32052464377423 0.16525945636211326 34.815699553795184 0.062136905468078846 C 34.113992685945895 -0.08739078679752671 33.80100142865089 0.05698079060070438 33.73537416936081 0.6602476822137298 C 33.63945740346839 1.567726111641484 33.59402376040824 4.238600481747862 33.59402376040824 4.238600481747862 C 33.07910217825839 4.238600481747862 31.327359101587938 4.1354780307358 30.81748576552349 4.1354780307358 C 30.33790193606138 4.1354780307358 29.82802869026669 6.2185531143205175 30.484301283167515 6.244333752044026 C 31.241538918136083 6.275270516159752 32.56417903143269 6.301051566856801 33.44257469281062 6.32683220458031 C 33.44257469281062 6.32683220458031 33.40218776124994 11.00343929179039 33.40218776124994 12.447154958207499 C 33.40218776124994 12.596682650473104 33.40218776124994 12.746210665434313 33.40218776124994 12.890582235149315 C 32.92260393178783 15.448021478881621 31.22134545235575 16.824708043867524 31.22134545235575 16.824708043867524 C 31.584819531583822 15.133498249158148 30.84272675523114 13.865090011871594 29.499891972557396 12.792615537892882 C 29.005163374749156 12.395593732701467 28.030852000626016 11.647955409671555 26.93538151685639 10.82297500251928 C 26.93538151685639 10.82297500251928 27.566412337711633 10.1887719287951 28.131816440895356 8.91520842947955 C 28.530628272811175 8.0128861226024 28.54577268007826 6.976504106950019 27.571460282897835 6.74963449959308 C 25.961068216978358 6.373237184604079 24.628329685756057 7.574615091142843 24.234566130015562 8.863646958110202 C 23.926622817906765 9.858779532364037 24.09321499890491 10.596105979087719 24.693956884866296 11.36436897671753 C 24.734342891161923 11.421086378556765 24.7848267098236 11.477803741979857 24.835309219573755 11.534521143819092 C 24.471835140345682 12.251222854477044 23.972058687621 13.210261833286708 23.54800562527817 13.952744218163504 C 22.37176320414209 16.02035145079354 21.483270027536072 17.65484488089955 20.8118526361992 17.65484488089955 C 20.276738069707733 17.65484488089955 20.281786676872176 15.99457108390384 20.281786676872176 14.442576720992408 C 20.281786676872176 13.101983628519019 20.37770267547164 11.091093375150642 20.45847468806289 9.002861652318193 C 20.483715942937966 8.311940554413257 20.145483129868687 7.920075394231994 19.57503078059956 7.56430260017832 C 19.231749715803016 7.347745253289045 18.494706178503105 6.919786666694641 18.06560483998495 6.919786666694641 C 17.424476985340338 6.919786666694641 15.581864997693907 7.007441364713185 13.840218413194265 12.132631851415685 C 13.623143620892485 12.777147784899364 13.188993584940121 13.957900463645766 13.188993584940121 13.957900463645766 L 13.224332150055709 7.796328237887118 C 13.224332150055709 7.651956668172115 13.148607541032096 7.512741343939375 12.976967008633824 7.414774923279172 C 12.684168464871156 7.2497788479953 11.896642045458332 6.919786666694641 11.199983423694443 6.919786666694641 C 10.866798851068708 6.919786666694641 10.70020670016048 7.079626650160824 10.70020670016048 7.394150433076759 L 10.63962726569692 17.03610919137391 C 10.63962726569692 17.76827926968367 10.659820423055574 18.62419604334459 10.73049593595354 18.995437235782987 C 10.801171448851505 19.366678428221384 10.9172810260685 19.676045120499907 11.05863205186443 19.856509578802047 C 11.199983077660361 20.036974037104187 11.366575063074027 20.176191212995032 11.63413234631976 20.232908614834265 C 11.886544891309283 20.284469890281283 13.269766176762337 20.464934252543063 13.340441689660302 19.92869701555371 C 13.426261955859438 19.28418108207003 13.431309637758837 18.588103431353684 14.158257796214986 15.994571206835499 C 15.289066002582436 11.9521671933496 16.76315656761299 9.982526350646854 17.454766943291478 9.281293007640711 C 17.575924962178355 9.157545951177807 17.717275989854908 9.15238951361483 17.707179488281003 9.353478477485838 C 17.676889983559285 10.24033241671118 17.575924194885395 12.457467080377045 17.50524868198743 14.33429753277145 C 17.31846339628799 19.36667805942641 18.217051620748645 20.299936855743862 19.504355576123274 20.299936855743862 C 20.48876452565435 20.299936855743862 21.87703424525481 19.304805572272443 23.366268284764928 16.788615308944962 C 24.29514646717673 15.22115257838172 25.193735052716427 13.679469354186564 25.844959399531845 12.570901899421973 C 26.294253722391616 12.993704348099316 26.804125915039098 13.452600484419577 27.308951005018145 13.937276465169987 C 28.485193426154222 15.071624532687594 28.86886061008359 16.149254391626958 28.61644806509407 17.17016764009964 C 28.419566287223823 17.95389900538126 27.682523141092872 18.758255598455246 26.369977955291226 17.974524233173625 C 25.986310891721537 17.747654625816686 25.82476677626928 17.57234581370497 25.44109971269959 17.309383317760897 C 25.234121427613577 17.170167870596497 24.91608169855877 17.128918152601724 24.72929641285933 17.278445844867328 C 24.239616061136495 17.65484315985633 23.956912866127666 18.13436372491317 23.795368840945162 18.727318371424992 C 23.638873061848063 19.304804650285003 24.209325200487747 19.609015942236415 24.794922288013083 19.877134560731093 C 25.30479562407753 20.109160290638634 26.395217440502876 20.315406181878448 27.091876062266763 20.341186819601955 C 29.80278673768159 20.433997117711556 31.9735318322469 19.01090548050314 33.488007102184035 15.339742782387297 C 33.760612661605094 18.510761224299664 34.91161707193561 20.305094084679393 36.91072444751018 20.305094084679393 C 38.248510984098516 20.305094084679393 39.59134245688105 18.54685346749559 40.17693954440639 16.819550814931993 C 40.34353183071926 17.52594028048874 40.59594776082479 18.139520154792923 40.9139875651044 18.655132901579865 C 42.45875231155396 21.140386429603726 45.44731640130628 20.604148455024422 46.95169517907261 18.49529224198956 C 47.416134270278505 17.845620185955276 47.48680854196727 17.60843965501246 47.48680854196727 17.60843965501246 C 47.70388333426905 19.598704803520132 49.28398511124826 20.29478159371487 50.18762200305321 20.29478159371487 C 51.1972721830113 20.29478159371487 52.242262252041456 19.81010435291496 52.97425865658301 18.134362925857392 C 53.06007892278215 18.314827384159532 53.15599445498784 18.49013682629599 53.25695947448815 18.655132901579865 C 54.7966759748523 21.140386429603726 57.79028722745291 20.604148455024422 59.28961775913383 18.49529224198956 C 59.3602932720318 18.397325821329357 59.4208736693728 18.309671415273503 59.4764044289696 18.227173377631566 L 59.5218406898528 19.53683022652797 C 59.5218406898528 19.53683022652797 58.663635244543826 20.33602999019432 58.13861717022317 20.82586209349533 C 55.82146993018915 22.98627953203622 54.059632287102794 24.625927855376247 53.92837776852263 26.53369504307427 C 53.76178548220976 28.967387099728786 55.705362195979774 29.8697099060158 57.174403251148284 29.9883008399281 C 58.73431273585405 30.112047896391005 60.07209957334159 29.240663438885626 60.88991622151484 28.013505042525505 C 61.61181607370575 26.93587444599619 62.08634937400976 24.61046047117771 62.051011617560775 22.32113984594008 C 62.035866865199914 21.403349171411122 62.01567355269011 20.238063753931602 61.9954805495423 18.985124744818464 C 62.80824895163015 18.026085028418848 63.72703371104299 16.80923930742074 64.57009158964325 15.391304253756644 C 65.48887327988425 13.839309890845211 66.47832981352248 11.761390413113968 66.98315490350153 10.142366334113037 C 66.98315490350153 10.142366334113037 67.84135481226518 10.147522264582925 68.75508819624093 10.09080486274369 C 69.0478867400036 10.075336480685827 69.1286584554569 10.132053889247887 69.07817594570675 10.348611236137161 C 69.01254868641666 10.611573732081236 67.92213048078175 14.886003260344275 68.91663592248362 17.73218561277367 C 69.5981498059913 19.681201780876517 71.1328193240467 20.310249346708385 72.04150446193704 20.310249346708385 C 73.10668534883456 20.310249346708385 74.1264277481948 19.49558186078144 74.67163886703692 18.27873583245418 C 74.737266126327 18.41279514170152 74.80794071395992 18.541698336081485 74.88366448046577 18.665445392544388 C 76.42338098082992 21.15069892056825 79.40690067600661 20.609304700506684 80.92137594594375 18.505604732954083 C 81.2646570107403 18.031240997304877 81.45648930883841 17.61875017907045 81.45648930883841 17.61875017907045 C 81.77957735920342 19.681201166218223 83.35967868483384 20.315406575643916 84.26331557663877 20.315406575643916 C 85.20229025122138 20.315406575643916 86.09583432182578 19.923539294891544 86.82278248028193 18.18076815174448 C 86.85307198500365 18.949031149374292 86.90354833196203 19.57807877667199 86.97422384485999 19.774011617992397 C 87.01965810476351 19.892602551904698 87.2872203378011 20.047287396273543 87.48410211567135 20.119473181131045 C 88.34735303879306 20.444309209148187 89.22069858851054 20.289625778493413 89.54883488496095 20.222596123869742 C 89.77600616943354 20.176190974814944 89.94764485694358 19.990570086633053 89.97288611181865 19.521362473534452 C 90.0334651212621 18.278735709522522 89.99812674044726 16.18534724948118 90.36664906576074 14.633352886569746 C 90.98758393606374 12.02435241733141 91.56813677946306 11.013751536891595 91.84579058496952 10.51360715775646 C 91.99723811798121 10.235176263427661 92.17392874229343 10.188771406335551 92.17897699308038 10.482670668316159 C 92.19412174544124 11.085937559929183 92.22441001929717 12.844177255125548 92.46167781098552 15.215995841172823 C 92.6383665894692 16.958766984319887 92.87563068009737 17.9899925393596 93.05736771971141 18.314828567376743 C 93.57733754794667 19.248087609557512 94.21846636546871 19.289336344099024 94.73843619370398 19.289336344099024 C 95.07162076632972 19.289336344099024 95.76323297373209 19.196527060175608 95.70265396428864 18.603572413663787 C 95.67236445956692 18.314829274233784 95.72789242644299 16.530807952098222 96.33873080457519 13.957900463645766 C 96.74259088257641 12.2821590365882 97.40896308195478 10.766257470065158 97.65127911972854 10.214551803958164 C 97.74214763953556 10.008306702170096 97.78253087003606 10.173303532331182 97.78253087003606 10.204240296446908 C 97.7320483602859 11.359212854166929 97.6159367331931 15.133497880363173 98.080375824399 17.201105112993208 C 98.7063589407874 20.000882239535517 100.52373511419245 20.310249346708385 101.15476647666625 20.310249346708385 C 102.50264950542541 20.310249346708385 103.60821178733828 19.268712345623243 103.98178235873716 16.520496444586964 C 104.05245787163513 15.845043775799667 103.92120921306692 15.329430291422774 103.5223973811511 15.329430291422774 Z M 46.966839315530414 13.633064865889429 C 46.89111554902457 15.087092777407745 46.608411496453016 16.303939543324955 46.164165419678646 17.185637359999692 C 45.3513970175908 18.784036825866554 43.75110132348245 19.28933658996234 43.044346209547754 16.9793914745223 C 42.5344728734833 15.313962292565938 42.706113405881574 13.045266157530724 42.91813993705299 11.818107761170603 C 43.23113149524719 9.997994779764491 44.018659990864506 8.708962428753729 45.2504332392997 8.832709485216633 C 46.51754421033272 8.961612671913368 47.128383340712915 10.611574100876211 46.966839315530414 13.633064865889429 Z M 59.309811224914164 13.653688864365208 C 59.2391357120162 15.025218815073874 58.88575999805646 16.407062117268673 58.50714118057218 17.185637359999692 C 57.719614069091186 18.79434907096776 56.06883585394896 19.299648835063543 55.387321970441285 16.9793914745223 C 54.92288287923539 15.396460376307246 55.03394441347393 13.34947726508465 55.26111569794652 12.060445398117292 C 55.558962487794595 10.384703971059725 56.285908208967214 8.832709485216633 57.59340514868346 8.832709485216633 C 58.86556436580188 8.83270948521663 59.4915482645282 10.250644784744043 59.309811224914164 13.653688864365208 Z M 59.63289897437998 23.022373496275367 C 59.617754222019116 25.52825151450164 59.22904043096469 27.719604827824543 58.39607904453523 28.35896463875762 C 57.214788377313745 29.261286945634772 55.629636639123675 28.58583501443742 55.957772935574084 26.760565910480707 C 56.250571479336756 25.141541831479774 57.6186468605492 23.49158114010688 59.63289897437998 21.475535255914536 C 59.63794722516693 21.470379128561916 59.63794722516693 21.929274532094244 59.63289897437998 23.022373496275367 Z M 80.93652008240156 13.669157600811992 C 80.8658445695036 15.174746860767998 80.5377101160608 16.355500830296812 80.13385003805958 17.185637359999692 C 79.3463229265786 18.79434907096776 77.70563735209738 19.29449258958128 77.0140269764189 16.9793914745223 C 76.63540815893462 15.721296342858558 76.6202683253354 13.612440006892042 76.89287388475645 11.854200496093167 C 77.17052769026292 10.065024249990675 77.94290762620415 8.708962428753729 79.22516333549338 8.832709485216633 C 80.4821778143556 8.956456541679536 81.07282286211209 10.611574100876211 80.93652008240156 13.669157600811992 Z" fill="rgb(0,0,0)"/>
        </svg>